<?xml version="1.0" encoding="utf-8"?>
<!-- Generator: Adobe Illustrator 16.0.0, SVG Export Plug-In . SVG Version: 6.00 Build 0)  -->
<!DOCTYPE svg PUBLIC "-//W3C//DTD SVG 1.1//EN" "http://www.w3.org/Graphics/SVG/1.1/DTD/svg11.dtd">
<svg version="1.1" id="Capa_1" xmlns="http://www.w3.org/2000/svg" xmlns:xlink="http://www.w3.org/1999/xlink" x="0px" y="0px"
	 width="1922px" height="297.666px" viewBox="0 0 1922 297.666" enable-background="new 0 0 1922 297.666" xml:space="preserve">
<linearGradient id="SVGID_1_" gradientUnits="userSpaceOnUse" x1="-75.8901" y1="148.0259" x2="-889.5363" y2="148.0258" gradientTransform="matrix(-1 0 0 1 1469.2852 0)">
	<stop  offset="0" style="stop-color:#231F46"/>
	<stop  offset="1" style="stop-color:#FFFFFF"/>
</linearGradient>
<polygon fill="url(#SVGID_1_)" points="897.868,147.343 1922,296.051 1922,0 "/>
<linearGradient id="SVGID_2_" gradientUnits="userSpaceOnUse" x1="-450.6494" y1="214.4785" x2="671.3018" y2="214.4785" gradientTransform="matrix(-1 0 0 1 1469.2852 0)">
	<stop  offset="0" style="stop-color:#B2B2B2"/>
	<stop  offset="0.0327" style="stop-color:#A8A8AB"/>
	<stop  offset="0.1853" style="stop-color:#807F8C"/>
	<stop  offset="0.3412" style="stop-color:#5E5C73"/>
	<stop  offset="0.499" style="stop-color:#44415F"/>
	<stop  offset="0.6596" style="stop-color:#322F51"/>
	<stop  offset="0.8243" style="stop-color:#272349"/>
	<stop  offset="1" style="stop-color:#231F46"/>
</linearGradient>
<polygon fill="url(#SVGID_2_)" points="898.14,148.625 1919.935,297.333 1538.333,131.625 "/>
<linearGradient id="SVGID_3_" gradientUnits="userSpaceOnUse" x1="951.5479" y1="152.5" x2="-59.0758" y2="152.4999" gradientTransform="matrix(-1 0 0 1 1469.2852 0)">
	<stop  offset="0" style="stop-color:#FFFFFF"/>
	<stop  offset="0.118" style="stop-color:#E2E2E7"/>
	<stop  offset="0.5549" style="stop-color:#7C7A91"/>
	<stop  offset="0.858" style="stop-color:#3C395B"/>
	<stop  offset="1" style="stop-color:#231F46"/>
</linearGradient>
<polygon fill="url(#SVGID_3_)" points="1921.935,298.666 2.14,6.333 2.14,95.254 "/>
<linearGradient id="SVGID_4_" gradientUnits="userSpaceOnUse" x1="816.3716" y1="438.0967" x2="947.3463" y2="-10.9599" gradientTransform="matrix(-1 0 0 1 1469.2852 0)">
	<stop  offset="0" style="stop-color:#27348B"/>
	<stop  offset="0.051" style="stop-color:#384494"/>
	<stop  offset="0.2424" style="stop-color:#747CB4"/>
	<stop  offset="0.4267" style="stop-color:#A6ABCF"/>
	<stop  offset="0.5993" style="stop-color:#CCCFE4"/>
	<stop  offset="0.7574" style="stop-color:#E8EAF3"/>
	<stop  offset="0.896" style="stop-color:#F9F9FC"/>
	<stop  offset="1" style="stop-color:#FFFFFF"/>
</linearGradient>
<polygon fill="url(#SVGID_4_)" points="3,5.002 3,95.444 1127.297,178.937 "/>
<g>
	<g>
		<path fill="#EC680A" d="M286.481,142.608h-13.38l-1.592,3.687c-0.521,1.229-0.782,2.244-0.782,3.045
			c0,1.062,0.428,1.844,1.285,2.346c0.502,0.298,1.741,0.521,3.715,0.67v1.034h-12.598v-1.034c1.359-0.205,2.477-0.768,3.352-1.69
			s1.956-2.826,3.241-5.712l13.548-30.224h0.531l13.659,31.062c1.304,2.943,2.375,4.795,3.212,5.559
			c0.633,0.577,1.527,0.913,2.682,1.005v1.034h-18.324v-1.034h0.754c1.471,0,2.504-0.205,3.101-0.614
			c0.41-0.298,0.615-0.727,0.615-1.285c0-0.335-0.056-0.68-0.167-1.034c-0.038-0.167-0.317-0.866-0.838-2.095L286.481,142.608z
			 M285.531,140.541l-5.643-13.045l-5.81,13.045H285.531z"/>
		<path fill="#EC680A" d="M316.035,150.737v9.721c0,1.341,0.107,2.253,0.321,2.737c0.214,0.484,0.544,0.838,0.992,1.062
			c0.447,0.224,1.322,0.335,2.625,0.335v1.033h-14.889v-1.033c1.154-0.038,2.011-0.363,2.57-0.978
			c0.373-0.429,0.559-1.536,0.559-3.324v-27.57c0-1.844-0.214-3.021-0.642-3.534c-0.429-0.512-1.257-0.805-2.486-0.88v-1.034h10.95
			v3.436c0.912-1.341,1.844-2.309,2.793-2.905c1.359-0.875,2.839-1.313,4.441-1.313c1.917,0,3.664,0.605,5.237,1.816
			c1.574,1.211,2.77,2.882,3.59,5.014c0.819,2.132,1.229,4.427,1.229,6.886c0,2.645-0.424,5.061-1.271,7.249
			c-0.848,2.188-2.077,3.855-3.688,5c-1.611,1.145-3.403,1.718-5.377,1.718c-1.435,0-2.775-0.317-4.022-0.95
			C318.036,152.739,317.059,151.91,316.035,150.737z M316.035,147.916c1.601,2.272,3.314,3.408,5.14,3.408
			c1.006,0,1.834-0.531,2.486-1.592c0.968-1.564,1.453-4.544,1.453-8.939c0-4.506-0.531-7.588-1.592-9.246
			c-0.708-1.099-1.658-1.648-2.85-1.648c-1.881,0-3.426,1.359-4.637,4.078V147.916z"/>
		<path fill="#EC680A" d="M347.851,150.737v9.721c0,1.341,0.107,2.253,0.321,2.737c0.214,0.484,0.544,0.838,0.992,1.062
			c0.447,0.224,1.322,0.335,2.625,0.335v1.033h-14.889v-1.033c1.154-0.038,2.011-0.363,2.57-0.978
			c0.373-0.429,0.559-1.536,0.559-3.324v-27.57c0-1.844-0.214-3.021-0.642-3.534c-0.429-0.512-1.257-0.805-2.486-0.88v-1.034h10.95
			v3.436c0.912-1.341,1.844-2.309,2.793-2.905c1.359-0.875,2.839-1.313,4.441-1.313c1.917,0,3.664,0.605,5.237,1.816
			c1.574,1.211,2.77,2.882,3.59,5.014c0.819,2.132,1.229,4.427,1.229,6.886c0,2.645-0.424,5.061-1.271,7.249
			c-0.848,2.188-2.077,3.855-3.688,5c-1.611,1.145-3.403,1.718-5.377,1.718c-1.435,0-2.775-0.317-4.022-0.95
			C349.853,152.739,348.875,151.91,347.851,150.737z M347.851,147.916c1.601,2.272,3.314,3.408,5.14,3.408
			c1.006,0,1.834-0.531,2.486-1.592c0.968-1.564,1.453-4.544,1.453-8.939c0-4.506-0.531-7.588-1.592-9.246
			c-0.708-1.099-1.658-1.648-2.85-1.648c-1.881,0-3.426,1.359-4.637,4.078V147.916z"/>
		<path fill="#EC680A" d="M379.667,115.512v14.386c2.197-2.272,4.6-3.408,7.207-3.408c1.788,0,3.473,0.526,5.056,1.579
			c1.583,1.052,2.821,2.546,3.715,4.483s1.341,4.171,1.341,6.704c0,2.849-0.568,5.438-1.704,7.765
			c-1.136,2.328-2.654,4.102-4.553,5.322c-1.899,1.219-4.069,1.83-6.508,1.83c-1.416,0-2.672-0.224-3.771-0.67
			c-1.099-0.447-2.179-1.173-3.241-2.179l-4.33,2.821h-0.95v-33.213c0-1.508-0.065-2.439-0.195-2.793
			c-0.187-0.521-0.48-0.908-0.88-1.159c-0.401-0.251-1.076-0.396-2.025-0.433v-1.034H379.667z M379.667,132.384v11.621
			c0,2.365,0.056,3.874,0.167,4.525c0.186,1.099,0.633,1.988,1.341,2.667c0.708,0.68,1.61,1.02,2.709,1.02
			c0.95,0,1.764-0.27,2.444-0.81c0.68-0.54,1.248-1.61,1.704-3.212c0.456-1.601,0.684-4.488,0.684-8.659
			c0-4.004-0.502-6.75-1.508-8.241c-0.726-1.08-1.704-1.62-2.933-1.62C382.675,129.675,381.138,130.578,379.667,132.384z"/>
		<path fill="#EC680A" d="M413.69,126.49c2.272,0,4.386,0.587,6.341,1.76c1.955,1.173,3.44,2.84,4.455,5s1.522,4.525,1.522,7.095
			c0,3.706-0.94,6.807-2.821,9.302c-2.272,3.017-5.41,4.525-9.414,4.525c-3.93,0-6.956-1.378-9.079-4.134
			c-2.123-2.756-3.185-5.95-3.185-9.581c0-3.743,1.085-7.007,3.254-9.791C406.935,127.883,409.91,126.49,413.69,126.49z
			 M413.802,128.474c-0.95,0-1.765,0.359-2.444,1.076s-1.127,2.132-1.341,4.246c-0.214,2.114-0.321,5.052-0.321,8.813
			c0,1.993,0.13,3.854,0.391,5.586c0.205,1.323,0.643,2.328,1.313,3.017s1.434,1.033,2.291,1.033c0.838,0,1.537-0.232,2.095-0.698
			c0.726-0.633,1.21-1.518,1.453-2.654c0.372-1.769,0.559-5.344,0.559-10.727c0-3.166-0.177-5.339-0.531-6.522
			c-0.354-1.182-0.875-2.043-1.564-2.583C415.217,128.669,414.584,128.474,413.802,128.474z"/>
		<path fill="#EC680A" d="M446.736,127.58h8.799v3.073h-5c0.912,0.913,1.545,1.742,1.899,2.486c0.447,1.005,0.67,2.058,0.67,3.156
			c0,1.863-0.517,3.478-1.55,4.847s-2.44,2.44-4.218,3.212c-1.778,0.773-3.356,1.159-4.734,1.159c-0.112,0-1.229-0.046-3.352-0.14
			c-0.838,0-1.542,0.275-2.109,0.824c-0.568,0.549-0.852,1.206-0.852,1.969c0,0.67,0.256,1.22,0.769,1.648
			c0.512,0.429,1.345,0.643,2.5,0.643l4.833-0.056c3.911,0,6.602,0.428,8.073,1.285c2.104,1.192,3.157,3.026,3.157,5.503
			c0,1.583-0.485,3.021-1.453,4.316c-0.969,1.294-2.245,2.249-3.827,2.863c-2.402,0.912-5.167,1.369-8.296,1.369
			c-2.346,0-4.488-0.228-6.425-0.685s-3.324-1.089-4.162-1.899c-0.838-0.81-1.257-1.662-1.257-2.556
			c0-0.857,0.321-1.625,0.964-2.305c0.643-0.68,1.839-1.252,3.589-1.718c-2.421-1.192-3.631-2.849-3.631-4.972
			c0-1.285,0.493-2.533,1.48-3.743c0.987-1.21,2.551-2.263,4.693-3.157c-2.496-0.912-4.302-2.113-5.419-3.604
			c-1.118-1.489-1.676-3.212-1.676-5.167c0-2.551,1.043-4.763,3.128-6.634s4.767-2.808,8.045-2.808
			C443.104,126.49,444.893,126.854,446.736,127.58z M440.255,157.246c-1.899,0-3.156,0.158-3.771,0.475
			c-1.062,0.577-1.592,1.359-1.592,2.347c0,0.95,0.549,1.811,1.648,2.584c1.099,0.772,3.166,1.159,6.202,1.159
			c2.588,0,4.623-0.345,6.104-1.034s2.221-1.658,2.221-2.905c0-0.465-0.14-0.856-0.419-1.173c-0.503-0.559-1.262-0.941-2.277-1.146
			C447.355,157.348,444.65,157.246,440.255,157.246z M441.903,128.222c-1.08,0-1.993,0.545-2.737,1.634
			c-0.745,1.089-1.117,3.348-1.117,6.774c0,2.775,0.367,4.679,1.103,5.712s1.606,1.55,2.612,1.55c1.118,0,2.048-0.512,2.793-1.536
			c0.745-1.024,1.117-3.017,1.117-5.978c0-3.333-0.419-5.605-1.257-6.816C443.821,128.669,442.983,128.222,441.903,128.222z"/>
		<path fill="#EC680A" d="M472.994,149.536c-3.185,2.813-6.043,4.218-8.576,4.218c-1.49,0-2.729-0.489-3.715-1.467
			c-0.987-0.978-1.48-2.202-1.48-3.673c0-1.992,0.856-3.785,2.57-5.377s5.447-3.71,11.202-6.355v-2.626
			c0-1.974-0.107-3.217-0.321-3.729c-0.214-0.512-0.619-0.959-1.215-1.341c-0.596-0.381-1.267-0.573-2.011-0.573
			c-1.21,0-2.207,0.271-2.989,0.81c-0.484,0.335-0.726,0.727-0.726,1.173c0,0.391,0.26,0.875,0.782,1.453
			c0.708,0.801,1.061,1.574,1.061,2.318c0,0.913-0.34,1.69-1.02,2.333s-1.569,0.964-2.667,0.964c-1.173,0-2.156-0.354-2.947-1.062
			c-0.792-0.708-1.187-1.537-1.187-2.486c0-1.341,0.531-2.621,1.592-3.841c1.062-1.219,2.542-2.155,4.441-2.807
			s3.873-0.978,5.922-0.978c2.477,0,4.437,0.526,5.88,1.579c1.443,1.052,2.378,2.192,2.807,3.422
			c0.261,0.782,0.391,2.579,0.391,5.391v10.14c0,1.192,0.046,1.941,0.14,2.249c0.093,0.307,0.232,0.536,0.419,0.684
			c0.186,0.149,0.4,0.224,0.643,0.224c0.484,0,0.978-0.344,1.48-1.034l0.838,0.67c-0.931,1.378-1.895,2.379-2.891,3.003
			c-0.997,0.624-2.127,0.936-3.394,0.936c-1.49,0-2.653-0.349-3.492-1.048C473.692,152.008,473.18,150.951,472.994,149.536z
			 M472.994,147.497v-8.743c-2.253,1.322-3.93,2.737-5.028,4.246c-0.726,1.006-1.089,2.021-1.089,3.045
			c0,0.857,0.308,1.611,0.922,2.263c0.465,0.503,1.117,0.754,1.956,0.754C470.684,149.061,471.765,148.54,472.994,147.497z"/>
		<path fill="#EC680A" d="M512.576,115.512v30.057c0,2.03,0.056,3.231,0.167,3.604c0.149,0.614,0.433,1.071,0.852,1.369
			s1.149,0.484,2.193,0.559v0.922l-11.034,2.151v-4.134c-1.322,1.602-2.5,2.691-3.533,3.268c-1.034,0.577-2.203,0.866-3.506,0.866
			c-3.334,0-5.969-1.49-7.905-4.47c-1.564-2.42-2.347-5.391-2.347-8.911c0-2.812,0.484-5.331,1.453-7.556
			c0.968-2.225,2.295-3.906,3.98-5.042c1.686-1.136,3.496-1.704,5.434-1.704c1.247,0,2.355,0.242,3.324,0.727
			s2.002,1.332,3.101,2.542v-7.877c0-1.993-0.083-3.194-0.251-3.604c-0.224-0.54-0.559-0.94-1.006-1.201
			c-0.447-0.26-1.285-0.391-2.514-0.391v-1.173H512.576z M504.754,133.223c-1.378-2.645-3.063-3.967-5.056-3.967
			c-0.689,0-1.257,0.187-1.704,0.559c-0.689,0.578-1.252,1.592-1.69,3.045c-0.438,1.453-0.656,3.678-0.656,6.676
			c0,3.296,0.242,5.736,0.726,7.318c0.484,1.583,1.145,2.729,1.983,3.436c0.428,0.354,1.015,0.531,1.76,0.531
			c1.638,0,3.185-1.285,4.637-3.855V133.223z"/>
		<path fill="#EC680A" d="M531.319,126.49c2.272,0,4.386,0.587,6.341,1.76c1.955,1.173,3.44,2.84,4.455,5s1.522,4.525,1.522,7.095
			c0,3.706-0.94,6.807-2.821,9.302c-2.272,3.017-5.41,4.525-9.414,4.525c-3.93,0-6.956-1.378-9.079-4.134
			c-2.123-2.756-3.185-5.95-3.185-9.581c0-3.743,1.085-7.007,3.254-9.791C524.563,127.883,527.538,126.49,531.319,126.49z
			 M531.431,128.474c-0.95,0-1.765,0.359-2.444,1.076s-1.127,2.132-1.341,4.246c-0.214,2.114-0.321,5.052-0.321,8.813
			c0,1.993,0.13,3.854,0.391,5.586c0.205,1.323,0.643,2.328,1.313,3.017s1.434,1.033,2.291,1.033c0.838,0,1.537-0.232,2.095-0.698
			c0.726-0.633,1.21-1.518,1.453-2.654c0.372-1.769,0.559-5.344,0.559-10.727c0-3.166-0.177-5.339-0.531-6.522
			c-0.354-1.182-0.875-2.043-1.564-2.583C532.846,128.669,532.213,128.474,531.431,128.474z"/>
		<path fill="#EC680A" d="M552.828,144.787c1.303,0,2.407,0.457,3.311,1.369c0.903,0.913,1.354,2.011,1.354,3.296
			c0,1.285-0.457,2.379-1.369,3.282c-0.913,0.903-2.011,1.354-3.296,1.354c-1.285,0-2.379-0.452-3.282-1.354
			c-0.903-0.903-1.354-1.998-1.354-3.282c0-1.285,0.451-2.384,1.354-3.296C550.449,145.244,551.543,144.787,552.828,144.787z"/>
		<path fill="#EC680A" d="M583.22,146.659l0.866,0.67c-1.229,2.309-2.761,4.027-4.595,5.154c-1.834,1.126-3.785,1.69-5.852,1.69
			c-3.482,0-6.267-1.313-8.352-3.939c-2.086-2.625-3.129-5.782-3.129-9.469c0-3.557,0.95-6.686,2.85-9.386
			c2.291-3.259,5.447-4.889,9.469-4.889c2.7,0,4.847,0.68,6.439,2.04s2.388,2.877,2.388,4.553c0,1.061-0.321,1.909-0.964,2.542
			c-0.643,0.634-1.485,0.95-2.528,0.95c-1.099,0-2.007-0.363-2.724-1.09c-0.717-0.726-1.159-2.02-1.327-3.883
			c-0.112-1.173-0.382-1.992-0.81-2.458c-0.429-0.465-0.932-0.698-1.509-0.698c-0.894,0-1.658,0.475-2.291,1.425
			c-0.968,1.434-1.452,3.631-1.452,6.592c0,2.458,0.391,4.809,1.173,7.053s1.853,3.916,3.212,5.014
			c1.024,0.801,2.235,1.201,3.631,1.201c0.913,0,1.778-0.214,2.598-0.643C581.134,148.661,582.103,147.851,583.22,146.659z"/>
		<path fill="#EC680A" d="M597.522,115.512v32.459c0,1.843,0.214,3.021,0.642,3.533c0.428,0.513,1.267,0.806,2.514,0.88v1.006
			h-14.106v-1.006c1.154-0.037,2.011-0.372,2.57-1.005c0.373-0.428,0.559-1.564,0.559-3.408v-27.04c0-1.825-0.214-2.993-0.642-3.506
			c-0.429-0.512-1.257-0.805-2.486-0.88v-1.034H597.522z"/>
	</g>
	<g>
		<g>
			<path fill="none" stroke="#EC680A" stroke-width="2" stroke-miterlimit="10" d="M74.848,209.315
				c-15.715-18.267-25.259-42.317-25.259-68.672c0-28.901,11.479-55.037,29.987-73.809"/>
			<path fill="none" stroke="#EC680A" stroke-width="2" stroke-miterlimit="10" d="M218.895,65.734
				c19.155,18.842,31.091,45.437,31.091,74.909c0,26.977-10.001,51.538-26.388,69.958"/>
		</g>
		<g>
			<rect x="147.866" y="100.381" fill="#EC680A" width="3.442" height="2.279"/>
			<path fill="#EC680A" d="M193.42,132.646l-12.327-19.615c0.763-0.27,1.312-1.008,1.312-1.892c0-1.107-0.857-2.007-1.92-2.007
				c-1.068,0-1.926,0.899-1.926,2.007c0,0.944,0.627,1.728,1.466,1.94c-0.195,0.021-0.457,0.054-0.791,0.048
				c-0.397,0.019-0.879-0.015-1.431-0.059c-0.549-0.064-1.164-0.164-1.822-0.311c-2.657-0.589-5.985-2.1-9.251-3.762
				c-3.284-1.643-6.565-3.397-9.462-4.123c-0.709-0.198-1.418-0.293-2.058-0.342c-0.319-0.025-0.643-0.004-0.92-0.004
				c-0.221,0.026-0.404,0.041-0.596,0.071c-0.444-0.51-1.071-0.852-1.822-0.852h-4.57c-0.753,0-1.387,0.347-1.832,0.862
				c-0.214-0.024-0.444-0.053-0.706-0.082c-0.287,0-0.605-0.021-0.927,0.004c-0.643,0.049-1.346,0.144-2.061,0.342
				c-2.897,0.726-6.178,2.48-9.453,4.123c-3.269,1.662-6.601,3.173-9.257,3.762c-0.662,0.146-1.28,0.246-1.825,0.311
				c-0.546,0.044-1.028,0.077-1.425,0.059c-0.341,0.006-0.593-0.027-0.798-0.048c0.845-0.213,1.472-0.996,1.472-1.94
				c0-1.107-0.861-2.007-1.926-2.007c-1.065,0-1.926,0.899-1.926,2.007c0,0.923,0.605,1.693,1.421,1.923l-12.299,19.584
				c-0.107,0.162-0.06,0.371,0.091,0.476c0.054,0.038,0.113,0.055,0.173,0.055c0.006,0,0.013-0.006,0.019-0.006
				c0.176,6.96,5.639,12.55,12.362,12.55c6.732,0,12.195-5.59,12.371-12.55c0.007,0,0.01,0.006,0.016,0.006
				c0.063,0,0.123-0.017,0.18-0.055c0.151-0.104,0.192-0.313,0.098-0.476l-12.271-19.53c0.035-0.003,0.076-0.003,0.114-0.01
				c0.205,0.04,0.504,0.121,0.888,0.148c0.401,0.062,0.892,0.077,1.453,0.086c0.558-0.007,1.195-0.04,1.882-0.124
				c1.377-0.176,2.959-0.541,4.624-1.047c1.658-0.503,3.398-1.152,5.113-1.807c3.423-1.314,6.849-2.69,9.358-3.045
				c0.63-0.098,1.175-0.11,1.645-0.098c0.23,0.005,0.435,0.041,0.627,0.057c0.18,0.041,0.34,0.081,0.492,0.114
				c0.035,0.014,0.05,0.021,0.076,0.031l2.108,4.571l0.177,0.395c0.895,1.944,3.555,1.944,4.457,0l0.18-0.395l2.109-4.571
				c0.003-0.018,0.003-0.031,0.006-0.047c0.139-0.032,0.274-0.063,0.432-0.099c0.189-0.016,0.397-0.052,0.634-0.057
				c0.463-0.013,1.012,0,1.639,0.098c2.506,0.354,5.932,1.73,9.355,3.045c1.727,0.654,3.455,1.304,5.119,1.807
				c1.658,0.506,3.244,0.871,4.618,1.047c0.693,0.084,1.324,0.117,1.885,0.124c0.564-0.009,1.056-0.024,1.446-0.086
				c0.388-0.027,0.688-0.108,0.896-0.148c0.079,0.016,0.158,0.021,0.239,0.027l-12.264,19.513c-0.095,0.162-0.061,0.371,0.094,0.476
				c0.057,0.038,0.123,0.055,0.183,0.055c0.003,0,0.009-0.006,0.019-0.006c0.167,6.96,5.629,12.55,12.362,12.55
				c6.733,0,12.186-5.59,12.365-12.55c0,0,0.009,0.006,0.019,0.006c0.056,0,0.123-0.017,0.173-0.055
				C193.471,133.018,193.515,132.809,193.42,132.646z M106.424,132.832l11.663-18.561v18.561l0,0H106.424z M130.407,132.832h-11.666
				l0,0v-18.561L130.407,132.832z M149.59,109.374c-0.854,0-1.544-0.726-1.544-1.61c0-0.891,0.69-1.61,1.544-1.61
				c0.848,0,1.548,0.72,1.548,1.61C151.138,108.648,150.438,109.374,149.59,109.374z M168.769,132.832l11.669-18.561v18.561l0,0
				H168.769z M181.09,132.832L181.09,132.832v-18.561l11.668,18.561H181.09z"/>
			<path fill="#EC680A" d="M138.797,169.91h21.336c0-3.037-2.358-5.489-5.273-5.489h0.536v-1.685c0-1.843-1.438-3.335-3.206-3.335
				h-5.138c-1.765,0-3.202,1.492-3.202,3.335v1.685h0.217C141.159,164.421,138.797,166.873,138.797,169.91z"/>
			<path fill="#EC680A" d="M149.59,99.65c2.027,0,3.672-1.711,3.672-3.82c0-2.112-1.646-3.823-3.672-3.823
				c-2.033,0-3.675,1.711-3.675,3.823C145.915,97.939,147.557,99.65,149.59,99.65z"/>
			<path fill="#EC680A" d="M170.941,171.321h-42.602c-3.89,0-7.044,3.28-7.044,7.331v0.078h56.694v-0.078
				C177.989,174.602,174.834,171.321,170.941,171.321z"/>
			<path fill="#EC680A" d="M151.815,113.736c-0.901,1.947-3.562,1.947-4.457,0l-0.177-0.068v44.122h4.813v-44.122L151.815,113.736z"
				/>
		</g>
		<path fill="#EC680A" d="M253.494,248.472l-3.741-5.332l-9.573-11.224c0,0-20.201-22.734-26.057-28.978
			c-6.493-5.507-2.279-11.153-2.279-11.153l0.441-0.458c11.898-13.267,19.596-30.452,20.85-49.588
			c2.972-45.509-31.667-84.821-77.361-87.806c-45.697-2.985-85.15,31.492-88.122,77.002s31.661,84.824,77.358,87.811
			c13.465,0.874,26.381-1.494,37.987-6.442l0.536-0.263c12.914-3.868,17.263,7.134,17.263,7.134l6.389,10.898
			c0,0,9.122,15.068,21.824,32.699c12.81,13.808,23.047,1.747,23.047,1.747C258.984,254.389,253.494,248.472,253.494,248.472z
			 M146.504,201.613c-36.266-2.367-63.757-33.575-61.396-69.706c2.357-36.128,33.672-63.5,69.942-61.132
			c36.266,2.37,63.754,33.577,61.396,69.709C214.088,176.615,182.777,203.984,146.504,201.613z"/>
	</g>
</g>
<linearGradient id="SVGID_5_" gradientUnits="userSpaceOnUse" x1="602.541" y1="-87.2739" x2="388.6015" y2="455.9544" gradientTransform="matrix(-1 0 0 1 1469.2852 0)">
	<stop  offset="0.1609" style="stop-color:#FFFFFF"/>
	<stop  offset="0.1904" style="stop-color:#F4F4F5"/>
	<stop  offset="0.243" style="stop-color:#D5D5DB"/>
	<stop  offset="0.3126" style="stop-color:#A4A4B0"/>
	<stop  offset="0.3954" style="stop-color:#616076"/>
	<stop  offset="0.4713" style="stop-color:#1D1C3B"/>
	<stop  offset="0.4857" style="stop-color:#3A3954"/>
	<stop  offset="0.5092" style="stop-color:#636277"/>
	<stop  offset="0.5356" style="stop-color:#898898"/>
	<stop  offset="0.5644" style="stop-color:#A9A8B4"/>
	<stop  offset="0.5962" style="stop-color:#C4C4CC"/>
	<stop  offset="0.632" style="stop-color:#DADADF"/>
	<stop  offset="0.6739" style="stop-color:#EBEAED"/>
	<stop  offset="0.7257" style="stop-color:#F6F6F8"/>
	<stop  offset="0.7984" style="stop-color:#FDFDFD"/>
	<stop  offset="1" style="stop-color:#FFFFFF"/>
</linearGradient>
<polygon fill="url(#SVGID_5_)" points="3.479,297.666 1918,5.128 1270.908,297.666 "/>
</svg>
